<svg id="Grupo_1" data-name="Grupo 1" xmlns="http://www.w3.org/2000/svg" width="72" height="72" viewBox="0 0 72 72">
  <path id="Trazado_1" data-name="Trazado 1" d="M36,0A36,36,0,1,0,72,36,36,36,0,0,0,36,0Zm0,66A30,30,0,1,1,66,36,30,30,0,0,1,36,66Z" fill="#003658"/>
  <path id="Trazado_2" data-name="Trazado 2" d="M167.223,128a3,3,0,0,0-3,3v12.975l-10.113,6.336a3.007,3.007,0,0,0,3.186,5.1l11.52-7.2a3,3,0,0,0,1.407-2.574V131A3,3,0,0,0,167.223,128Z" transform="translate(-131.223 -110)" fill="#003658"/>
</svg>
