<svg xmlns="http://www.w3.org/2000/svg" x="0px" y="0px"
	 viewBox="0 0 800 717.9" style="enable-background:new 0 0 800 717.9;" xml:space="preserve">
<style type="text/css">
	.st0{fill:#003658}
</style>
<g>
	<g>
		<g>
			<path class="st0" d="M248.8,255.7h-54.8l-10.1-15.1c-11-16.4-16.8-35.5-16.8-55.2v-0.9c0-0.3,0-0.5,0-0.8v-36.2h15.3l0,7.7v26
				c2.4,1.2,7,2.5,9.3,2.7c5.8,0.5,14.1,2.1,20.8,6.6c3.7,2.5,6.6,5.1,9,7.6c2.3-2.5,5.3-5.1,9-7.6c6.7-4.5,15-6.1,20.8-6.6
				c2.2-0.2,6.9-1.6,9.3-2.7v-33.6h15.3l0,7.7v28.6c0,0.3,0,0.6,0,0.8v0.9c0,19.7-5.8,38.8-16.8,55.2L248.8,255.7z M202.1,240.3
				h38.5l5.6-8.3c7-10.4,11.5-22.1,13.3-34.4c-3.9,1-6.9,1.4-7,1.4c-5.6,0.5-10.5,1.9-13.5,4c-6.6,4.5-9.5,9.1-10.7,11.5l-6.8,13.6
				l-6.8-13.6c-1.2-2.4-4.2-7-10.7-11.5c-3.1-2.1-7.9-3.5-13.5-4c-0.1,0-3.1-0.4-7-1.4c1.8,12.3,6.3,24,13.3,34.4L202.1,240.3z"/>
		</g>
		<g>
			<path class="st0" d="M220.8,556.5c-10.4,0-20.7-1.3-30.8-3.9l-17.4-4.5l-7.2,2.1c-23.7,6.8-48.7,6.3-72.2-1.4l-13.7-4.5l0.9-6.3
				c0.7-5.2,17.5-126.9,38.2-179.3c20.1-50.8,67.8-108.8,73.1-115.1c0.3-0.4,0.6-0.8,1-1.1c2.4-2.4,5.3-2.8,13.7-2.9
				c3.9-0.1,9,0,15.1,0.1c6.1-0.1,11.2-0.2,15.1-0.1c8.4,0.1,11.3,0.5,13.7,2.9c0.4,0.4,0.7,0.7,1,1.1c5.3,6.3,53,64.3,73.1,115.1
				l0,0c20.7,52.4,37.5,174.1,38.2,179.3l0.8,5.9l-5.6,2.2c-25.2,10-53.5,11.5-79.6,4l-7.9-2.3l-19.6,4.9
				C240.9,555.2,230.9,556.5,220.8,556.5z M172.4,532.2l21.4,5.5c17.4,4.5,35.8,4.6,53.2,0.2l23.6-5.9l11.8,3.4
				c20.9,6,43.5,5.4,64.1-1.5c-3.7-25.6-19-125.4-36.4-169.7l0,0c-17.8-45.2-60.3-98.4-69.3-109.4c-2.4-0.1-7.8-0.3-19.1,0l-0.2,0
				l-0.2,0c-11.4-0.2-16.7-0.1-19.1,0c-9,11-51.5,64.2-69.3,109.4c-17.4,44.1-32.6,143.4-36.4,169.4l1.5,0.5
				c20.6,6.7,42.4,7.1,63.2,1.2L172.4,532.2z"/>
		</g>
	</g>
</g>
<g>
	<g>
		<g>
			<path class="st0" d="M541.4,542L346.7,236.3l49.7,9.5l6.2-4l-46.4-18l109.5-73.6l76.5,333.3l76.5-333.3l109.5,73.6l-46.4,18
				l6.2,4l49.6-9.5L541.4,542z M627.7,173L552,502.8L708.8,256l-23.6,4.5l-50.5-33.2l3.2-14l32.4,18.1l28.3-10.9L627.7,173z
				 M375.6,256l156.5,245.8L456.7,173l-70.8,47.6l28.3,10.9l32.4-18.1l4.1,13.6l-51.5,33.5L375.6,256z"/>
		</g>
		<g>
			<polygon class="st0" points="543.4,209.1 457.9,162.7 464.5,150.5 543.3,193.3 619.8,150.6 626.6,162.7"/>
		</g>
		<g>
			<polygon class="st0" points="592.8,268.3 543,215.9 487.9,265.8 478.6,255.6 543.7,196.6 602.9,258.8"/>
		</g>
		<g>
			<polygon class="st0" points="560.1,269.5 525.7,269.5 510.7,234.3 523.5,228.9 534.8,255.7 551.1,255.7 561.5,232.5 574.1,238.2 
							"/>
		</g>
		<g>
			<polygon class="st0" points="519.7,389.7 507.4,387.6 523.4,261.7 537.1,263.5"/>
		</g>
		<g>
			<polygon class="st0" points="564.7,389.3 548.7,263.4 562.5,261.8 576.6,387.7"/>
		</g>
	</g>
</g>
</svg>
