<svg xmlns="http://www.w3.org/2000/svg" width="68.986" height="82.334" viewBox="0 0 68.986 82.334">
  <g id="Grupo_2" data-name="Grupo 2" transform="translate(-41.493 0.021)">
    <path id="Trazado_3" data-name="Trazado 3" d="M184.389,128a13.722,13.722,0,1,0,13.722,13.722A13.722,13.722,0,0,0,184.389,128Zm0,20.583a6.861,6.861,0,1,1,6.861-6.861A6.861,6.861,0,0,1,184.389,148.583Z" transform="translate(-108.403 -107.435)" fill="#003658"/>
    <path id="Trazado_4" data-name="Trazado 4" d="M75.986,82.313A18.082,18.082,0,0,1,61.2,74.766c-13.073-18.034-19.7-31.591-19.7-40.3a34.493,34.493,0,0,1,68.986,0c0,8.706-6.631,22.263-19.7,40.3A18.082,18.082,0,0,1,75.986,82.313Zm0-74.848A27.042,27.042,0,0,0,48.975,34.475c0,6.9,6.494,19.646,18.281,35.9a10.788,10.788,0,0,0,17.461,0C96.5,54.121,103,41.37,103,34.475A27.042,27.042,0,0,0,75.986,7.464Z" transform="translate(0 0)" fill="#003658"/>
  </g>
</svg>
